<svg width="48" height="49" viewBox="0 0 48 49" fill="none" xmlns="http://www.w3.org/2000/svg">
<path d="M39.6353 11.7197C37.8051 3.84203 29.9275 0.5 23.88 0.5C17.8325 0.5 9.95488 3.84203 8.12473 11.7197C6.29457 19.5973 -3.97023 23.4168 1.67939 31.1353C5.73756 36.7053 17.9121 48.2433 23.88 48.2433C29.8479 48.2433 42.0224 36.7053 46.0806 31.1353C51.7302 23.4168 41.4654 19.5973 39.6353 11.7197Z" fill="#3E4347"/>
<path d="M39.3966 18.8016C33.8265 15.0617 27.779 19.5973 23.88 19.5973C19.981 19.5973 13.9335 15.0617 8.36344 18.8016C2.7934 22.5415 9.23873 30.5782 15.5249 28.3502C23.88 25.3265 17.2755 31.7718 16.2411 34.3181C15.2862 36.8644 14.3313 44.2646 23.88 44.2646C33.4287 44.2646 32.4738 36.8644 31.5189 34.3181C30.4845 31.7718 23.88 25.9631 32.2351 28.3502C38.8396 30.26 44.9666 22.5415 39.3966 18.8016Z" fill="#94989B"/>
<path opacity="0.5" d="M36.4524 13.6294C32.7125 12.1971 28.8135 14.9025 23.88 14.9025C18.9465 14.9025 14.9679 12.1971 11.3076 13.6294C7.16986 15.2208 11.3076 13.6294 15.6045 14.9025C19.9014 16.2553 21.7316 16.4144 23.88 16.4144C26.0284 16.4144 27.8586 16.2553 32.1555 14.9821C36.4524 13.6294 40.6697 15.2208 36.4524 13.6294Z" fill="#94989B"/>
<path opacity="0.5" d="M32.3146 11.5605C29.8479 10.5261 27.222 12.5154 23.88 12.5154C20.6175 12.5154 17.9917 10.5261 15.4454 11.5605C12.6603 12.7541 15.4454 11.5605 18.31 12.5154C21.1745 13.4703 22.3681 13.6294 23.88 13.6294C25.3123 13.6294 26.5059 13.5498 29.45 12.5154C32.3146 11.5605 35.0201 12.7541 32.3146 11.5605Z" fill="#94989B"/>
<path d="M21.4928 26.1222C19.5831 25.2469 20.2993 28.1911 16.5594 29.4642C12.8991 30.817 14.3313 33.9203 16.9572 33.9203C19.2648 33.9203 21.095 33.9999 22.4477 32.0105C23.88 30.1008 23.4821 26.9975 21.4928 26.1222ZM31.2006 29.4642C27.5403 28.1911 28.2565 25.1674 26.2672 26.1222C24.3574 26.9975 23.88 30.1008 25.3123 32.0105C26.7446 33.9203 28.4952 33.9203 30.8028 33.9203C33.4287 33.9203 34.8609 30.817 31.2006 29.4642Z" fill="#94989B"/>
<path d="M21.095 28.6685C21.1745 29.9417 21.652 32.6471 19.0261 32.7267C16.7185 32.8063 16.0819 30.4191 18.867 30.3395C20.6971 30.3395 21.095 28.6685 21.095 28.6685ZM26.665 28.6685C26.5855 29.9417 26.108 32.6471 28.7339 32.7267C31.0415 32.8063 31.6781 30.4191 28.893 30.3395C27.0629 30.3395 26.665 28.6685 26.665 28.6685Z" fill="#3E4347"/>
<path d="M23.88 38.2967C27.6594 38.2967 30.7232 38.1186 30.7232 37.8989C30.7232 37.6791 27.6594 37.501 23.88 37.501C20.1006 37.501 17.0368 37.6791 17.0368 37.8989C17.0368 38.1186 20.1006 38.2967 23.88 38.2967Z" fill="#3E4347"/>
<path d="M16.7185 26.1222C19.3444 26.1222 21.4928 24.0533 21.4928 21.507H11.9442C11.9442 24.0533 14.0926 26.1222 16.7185 26.1222Z" fill="#C7E755"/>
<path d="M16.7185 24.1329C18.0712 24.1329 19.1057 23.0985 19.1057 21.8253H14.3313C14.3313 23.0985 15.3658 24.1329 16.7185 24.1329Z" fill="#89664C"/>
<path d="M35.8158 21.507C35.8158 24.0533 33.6674 26.1222 31.0415 26.1222C28.4156 26.1222 26.2672 24.0533 26.2672 21.507H35.8158Z" fill="#C7E755"/>
<path d="M33.4286 21.8253C33.4286 23.0985 32.3942 24.1329 31.0415 24.1329C29.6888 24.1329 28.6543 23.0985 28.6543 21.8253H33.4286Z" fill="#89664C"/>
<path d="M39.3966 21.6662C39.3966 21.9845 32.4738 22.3028 23.88 22.3028C15.2862 22.3028 8.36344 21.9845 8.36344 21.6662C8.36344 21.3479 15.2862 21.1092 23.88 21.1092C32.4738 21.1092 39.3966 21.3479 39.3966 21.6662ZM0.00837258 26.7588C0.00837258 26.7588 0.00837258 31.6923 3.42997 36.0687L4.14612 34.4773C4.14612 34.4773 4.22569 36.8644 6.29457 39.6495L6.93114 37.2623C6.93114 37.2623 7.01072 40.9226 10.1936 44.3442C10.1936 44.3442 10.4323 41.9571 10.8302 41.0818C10.8302 41.0818 12.5808 44.9012 16.7981 47.4475C16.7981 47.4475 15.6841 45.3787 18.1508 43.7872C18.0712 43.7872 6.45371 26.7588 0.00837258 26.7588ZM47.7516 26.7588C47.7516 26.7588 47.7516 31.6923 44.4096 36.0687L43.6934 34.4773C43.6934 34.4773 43.6139 36.8644 41.545 39.6495L40.9084 37.2623C40.9084 37.2623 40.8289 40.9226 37.646 44.3442C37.646 44.3442 37.4073 41.9571 37.0094 41.0818C37.0094 41.0818 35.2588 44.9012 31.0415 47.4475C31.0415 47.4475 32.1555 45.3787 29.6888 43.7872C29.6888 43.7872 41.3063 26.7588 47.7516 26.7588Z" fill="#3E4347"/>
</svg>
